<svg width="143" height="48" viewBox="0 0 143 48" fill="none" xmlns="http://www.w3.org/2000/svg">
<rect x="0.333374" y="0.83374" width="141.755" height="46.2144" rx="8.88889" fill="#2A333E"/>
<path d="M92.9704 23.1335V25.4495H91.5187V26.9684H92.9704V32.1292C92.9704 33.8915 93.7677 34.5964 95.7732 34.5964C96.1257 34.5964 96.4613 34.5544 96.7551 34.5041V33.002C96.5033 33.0271 96.3439 33.0439 96.0669 33.0439C95.169 33.0439 94.7746 32.6243 94.7746 31.6677V26.9684H96.7551V25.4495H94.7746V23.1335H92.9704Z" fill="white"/>
<path d="M101.864 34.7222C104.533 34.7222 106.169 32.9348 106.169 29.9726C106.169 27.0272 104.524 25.2314 101.864 25.2314C99.1957 25.2314 97.5509 27.0272 97.5509 29.9726C97.5509 32.9348 99.1873 34.7222 101.864 34.7222ZM101.864 33.1194C100.295 33.1194 99.4138 31.9698 99.4138 29.9726C99.4138 27.9922 100.295 26.8342 101.864 26.8342C103.425 26.8342 104.315 27.9922 104.315 29.9726C104.315 31.9614 103.425 33.1194 101.864 33.1194Z" fill="white"/>
<path d="M107.569 34.546H109.373V29.1502C109.373 27.8663 110.338 27.002 111.706 27.002C112.025 27.002 112.562 27.0607 112.713 27.1111V25.3321C112.52 25.2817 112.176 25.2565 111.908 25.2565C110.716 25.2565 109.701 25.9111 109.44 26.809H109.306V25.4076H107.569V34.546Z" fill="white"/>
<path d="M117.193 26.767C118.527 26.767 119.4 27.6985 119.442 29.1334H114.826C114.927 27.7069 115.859 26.767 117.193 26.767ZM119.433 32.0789C119.098 32.7922 118.351 33.1866 117.26 33.1866C115.817 33.1866 114.885 32.1712 114.826 30.5684V30.4677H121.28V29.8383C121.28 26.9684 119.744 25.2314 117.201 25.2314C114.625 25.2314 112.989 27.0859 112.989 30.0062C112.989 32.9264 114.592 34.7222 117.21 34.7222C119.299 34.7222 120.759 33.7153 121.171 32.0789H119.433Z" fill="white"/>
<path d="M81.1388 31.1713C81.278 33.4153 83.148 34.8504 85.9312 34.8504C88.9058 34.8504 90.7671 33.3457 90.7671 30.9452C90.7671 29.0578 89.706 28.0141 87.1315 27.414L85.7486 27.0748C84.1134 26.6921 83.4524 26.1789 83.4524 25.283C83.4524 24.1523 84.4787 23.413 86.0182 23.413C87.4794 23.413 88.4883 24.135 88.671 25.2917H90.5671C90.454 23.1782 88.5927 21.6909 86.0443 21.6909C83.3045 21.6909 81.478 23.1782 81.478 25.4135C81.478 27.2574 82.5131 28.3533 84.7831 28.8839L86.4009 29.2753C88.0621 29.6666 88.7927 30.2407 88.7927 31.1974C88.7927 32.3107 87.6447 33.1196 86.0791 33.1196C84.4004 33.1196 83.235 32.3629 83.0697 31.1713H81.1388Z" fill="white"/>
<path d="M62.4493 25.2565C61.2073 25.2565 60.1332 25.8775 59.5793 26.9181H59.4451V25.4076H57.708V37.5838H59.5122V33.1614H59.6549C60.1332 34.1264 61.1653 34.6971 62.466 34.6971C64.7737 34.6971 66.2423 32.8761 66.2423 29.9726C66.2423 27.0691 64.7737 25.2565 62.4493 25.2565ZM61.9374 33.0775C60.4269 33.0775 59.4786 31.8859 59.4786 29.981C59.4786 28.0677 60.4269 26.8761 61.9458 26.8761C63.473 26.8761 64.3877 28.0425 64.3877 29.9726C64.3877 31.9111 63.473 33.0775 61.9374 33.0775Z" fill="white"/>
<path d="M72.5554 25.2565C71.3135 25.2565 70.2393 25.8775 69.6855 26.9181H69.5512V25.4076H67.8142V37.5838H69.6184V33.1614H69.761C70.2393 34.1264 71.2715 34.6971 72.5722 34.6971C74.8799 34.6971 76.3484 32.8761 76.3484 29.9726C76.3484 27.0691 74.8799 25.2565 72.5554 25.2565ZM72.0435 33.0775C70.533 33.0775 69.5848 31.8859 69.5848 29.981C69.5848 28.0677 70.533 26.8761 72.0519 26.8761C73.5792 26.8761 74.4939 28.0425 74.4939 29.9726C74.4939 31.9111 73.5792 33.0775 72.0435 33.0775Z" fill="white"/>
<path d="M54.471 34.546H56.541L52.0096 21.9953H49.9134L45.382 34.546H47.3824L48.5392 31.2148H53.3229L54.471 34.546ZM50.8615 24.2741H51.0093L52.8271 29.5797H49.035L50.8615 24.2741Z" fill="white"/>
<path d="M46.5972 12.5279V18.5824H48.7832C50.5874 18.5824 51.6321 17.4705 51.6321 15.5363C51.6321 13.6314 50.579 12.5279 48.7832 12.5279H46.5972ZM47.537 13.3838H48.6783C49.9328 13.3838 50.6755 14.181 50.6755 15.5489C50.6755 16.9377 49.9454 17.7265 48.6783 17.7265H47.537V13.3838Z" fill="white"/>
<path d="M54.8318 18.6705C56.1661 18.6705 56.9843 17.7768 56.9843 16.2957C56.9843 14.823 56.1619 13.9251 54.8318 13.9251C53.4976 13.9251 52.6752 14.823 52.6752 16.2957C52.6752 17.7768 53.4934 18.6705 54.8318 18.6705ZM54.8318 17.8691C54.0472 17.8691 53.6067 17.2943 53.6067 16.2957C53.6067 15.3055 54.0472 14.7265 54.8318 14.7265C55.6123 14.7265 56.057 15.3055 56.057 16.2957C56.057 17.2901 55.6123 17.8691 54.8318 17.8691Z" fill="white"/>
<path d="M63.9518 14.0132H63.0497L62.2357 17.4999H62.1644L61.2245 14.0132H60.3602L59.4204 17.4999H59.3532L58.535 14.0132H57.6204L58.8791 18.5824H59.8064L60.7462 15.2174H60.8176L61.7616 18.5824H62.6973L63.9518 14.0132Z" fill="white"/>
<path d="M64.9907 18.5824H65.8928V15.9097C65.8928 15.1964 66.3166 14.7517 66.9837 14.7517C67.6508 14.7517 67.9697 15.1167 67.9697 15.851V18.5824H68.8718V15.6244C68.8718 14.5377 68.3096 13.9251 67.29 13.9251C66.6019 13.9251 66.1487 14.2314 65.9263 14.7391H65.8592V14.0132H64.9907V18.5824Z" fill="white"/>
<path d="M70.2925 18.5824H71.1946V12.23H70.2925V18.5824Z" fill="white"/>
<path d="M74.5873 18.6705C75.9216 18.6705 76.7397 17.7768 76.7397 16.2957C76.7397 14.823 75.9174 13.9251 74.5873 13.9251C73.253 13.9251 72.4307 14.823 72.4307 16.2957C72.4307 17.7768 73.2488 18.6705 74.5873 18.6705ZM74.5873 17.8691C73.8027 17.8691 73.3621 17.2943 73.3621 16.2957C73.3621 15.3055 73.8027 14.7265 74.5873 14.7265C75.3677 14.7265 75.8125 15.3055 75.8125 16.2957C75.8125 17.2901 75.3677 17.8691 74.5873 17.8691Z" fill="white"/>
<path d="M79.4276 17.8985C78.9367 17.8985 78.58 17.6593 78.58 17.2481C78.58 16.8454 78.8653 16.6314 79.4947 16.5894L80.6108 16.5181V16.8999C80.6108 17.4663 80.1073 17.8985 79.4276 17.8985ZM79.1968 18.6579C79.7968 18.6579 80.2961 18.3978 80.5688 17.9405H80.6402V18.5824H81.5087V15.4607C81.5087 14.4957 80.8625 13.9251 79.7171 13.9251C78.6807 13.9251 77.9423 14.4286 77.85 15.2132H78.7227C78.8234 14.8901 79.1716 14.7055 79.6751 14.7055C80.2919 14.7055 80.6108 14.9782 80.6108 15.4607V15.8551L79.373 15.9265C78.2863 15.9936 77.6737 16.4677 77.6737 17.2901C77.6737 18.1251 78.3157 18.6579 79.1968 18.6579Z" fill="white"/>
<path d="M84.5699 18.6579C85.1993 18.6579 85.7322 18.36 86.0049 17.8607H86.0762V18.5824H86.9406V12.23H86.0385V14.7391H85.9713C85.7238 14.2356 85.1951 13.9377 84.5699 13.9377C83.4161 13.9377 82.6734 14.8524 82.6734 16.2957C82.6734 17.7433 83.4077 18.6579 84.5699 18.6579ZM84.8259 14.7475C85.5811 14.7475 86.0552 15.3475 86.0552 16.2999C86.0552 17.2565 85.5853 17.8481 84.8259 17.8481C84.0622 17.8481 83.6049 17.2649 83.6049 16.2957C83.6049 15.3349 84.0664 14.7475 84.8259 14.7475Z" fill="white"/>
<path d="M92.7903 18.6705C94.1246 18.6705 94.9428 17.7768 94.9428 16.2957C94.9428 14.823 94.1204 13.9251 92.7903 13.9251C91.4561 13.9251 90.6337 14.823 90.6337 16.2957C90.6337 17.7768 91.4519 18.6705 92.7903 18.6705ZM92.7903 17.8691C92.0057 17.8691 91.5652 17.2943 91.5652 16.2957C91.5652 15.3055 92.0057 14.7265 92.7903 14.7265C93.5708 14.7265 94.0155 15.3055 94.0155 16.2957C94.0155 17.2901 93.5708 17.8691 92.7903 17.8691Z" fill="white"/>
<path d="M96.1369 18.5824H97.039V15.9097C97.039 15.1964 97.4628 14.7517 98.1299 14.7517C98.797 14.7517 99.1159 15.1167 99.1159 15.851V18.5824H100.018V15.6244C100.018 14.5377 99.4558 13.9251 98.4362 13.9251C97.7481 13.9251 97.2949 14.2314 97.0726 14.7391H97.0054V14.0132H96.1369V18.5824Z" fill="white"/>
<path d="M104.173 12.8761V14.0342H103.447V14.7936H104.173V17.374C104.173 18.2551 104.571 18.6076 105.574 18.6076C105.75 18.6076 105.918 18.5866 106.065 18.5614V17.8104C105.939 17.823 105.859 17.8314 105.721 17.8314C105.272 17.8314 105.075 17.6216 105.075 17.1433V14.7936H106.065V14.0342H105.075V12.8761H104.173Z" fill="white"/>
<path d="M107.276 18.5824H108.178V15.9139C108.178 15.2216 108.589 14.7558 109.328 14.7558C109.965 14.7558 110.305 15.1251 110.305 15.8551V18.5824H111.207V15.6328C111.207 14.5461 110.607 13.9293 109.634 13.9293C108.946 13.9293 108.463 14.2356 108.241 14.7475H108.17V12.23H107.276V18.5824Z" fill="white"/>
<path d="M114.462 14.6929C115.129 14.6929 115.565 15.1586 115.586 15.8761H113.278C113.329 15.1628 113.794 14.6929 114.462 14.6929ZM115.582 17.3488C115.414 17.7055 115.041 17.9027 114.495 17.9027C113.773 17.9027 113.308 17.395 113.278 16.5936V16.5433H116.505V16.2286C116.505 14.7936 115.737 13.9251 114.466 13.9251C113.178 13.9251 112.36 14.8524 112.36 16.3125C112.36 17.7726 113.161 18.6705 114.47 18.6705C115.515 18.6705 116.245 18.167 116.45 17.3488H115.582Z" fill="white"/>
<path d="M35.5946 24.2444C35.6165 22.545 36.5291 20.937 37.9769 20.0469C37.0635 18.7425 35.5337 17.9154 33.9421 17.8656C32.2445 17.6874 30.5987 18.8815 29.7336 18.8815C28.8518 18.8815 27.5199 17.8833 26.0857 17.9128C24.2162 17.9732 22.4734 19.0361 21.5638 20.6705C19.6087 24.0556 21.067 29.0305 22.9399 31.7667C23.8769 33.1065 24.9721 34.6032 26.405 34.5501C27.8073 34.492 28.331 33.656 30.0236 33.656C31.7005 33.656 32.1918 34.5501 33.6539 34.5164C35.1585 34.4919 36.1065 33.1706 37.0107 31.818C37.684 30.8633 38.202 29.8082 38.5457 28.6917C36.7775 27.9438 35.5966 26.1643 35.5946 24.2444Z" fill="white"/>
<path d="M32.833 16.0662C33.6534 15.0813 34.0576 13.8154 33.9597 12.5374C32.7063 12.669 31.5485 13.268 30.7171 14.2151C29.904 15.1405 29.4808 16.3841 29.5608 17.6133C30.8147 17.6262 32.0473 17.0434 32.833 16.0662Z" fill="white"/>
</svg>
