<svg width="14" height="14" viewBox="0 0 14 14" fill="none" xmlns="http://www.w3.org/2000/svg">
<path fill-rule="evenodd" clip-rule="evenodd" d="M10.7816 0.548859C11.3082 -0.0493248 12.246 -0.0315293 12.7495 0.586204L12.7814 0.625283C14.3156 2.50719 14.2349 5.23019 12.592 7.01795L8.08545 11.9218C6.50314 13.6436 3.92307 14.0039 1.92967 12.7812L1.40895 12.4619C0.657742 12.0011 0.558809 10.9484 1.21103 10.3558L2.11809 9.53157C2.86082 8.85669 3.91159 8.63867 4.86151 8.96235C5.58828 9.20999 6.39257 8.98775 6.8891 8.4021L9.16474 5.71802C9.46773 5.36064 9.49998 4.84669 9.24404 4.45425C8.76598 3.72123 8.83535 2.75939 9.41365 2.10256L10.7816 0.548859ZM12.0606 1.14786C11.904 0.955804 11.6125 0.950272 11.4487 1.13625L10.0808 2.68995C9.76636 3.0471 9.72864 3.5701 9.98858 3.96868C10.4593 4.69041 10.4 5.63561 9.84275 6.29285L7.56711 8.97693C6.83434 9.84123 5.64738 10.1692 4.57481 9.80373C3.93114 9.58441 3.21914 9.73214 2.71586 10.1894L1.8088 11.0136C1.59496 11.2079 1.6274 11.5531 1.87369 11.7041L2.39441 12.0235C4.02537 13.0238 6.13633 12.7291 7.43095 11.3204L11.9375 6.41648C13.2815 4.954 13.3475 2.72644 12.0924 1.18694L12.0606 1.14786Z" fill="white"/>
</svg>
