<svg width="25" height="25" viewBox="0 0 25 25" fill="none" xmlns="http://www.w3.org/2000/svg">
<g clip-path="url(#clip0_507_938)">
<path fill-rule="evenodd" clip-rule="evenodd" d="M6.7126 10.9454H0.668386V13.0451C0.668386 13.5643 1.09206 13.9883 1.61079 13.9883H3.78489L5.08173 14.6434L6.71265 13.9883V10.9454H6.7126Z" fill="#FFEF60"/>
<path fill-rule="evenodd" clip-rule="evenodd" d="M5.77024 7.89856H1.61084C1.09211 7.89856 0.668433 8.32256 0.668433 8.84171V10.4019H6.71265V8.84171C6.71265 8.32256 6.28897 7.89856 5.77024 7.89856Z" fill="#FFEF60"/>
<path fill-rule="evenodd" clip-rule="evenodd" d="M6.71265 9.93164H0.668433V11.4144H6.71265V9.93164Z" fill="#FF814E"/>
<path fill-rule="evenodd" clip-rule="evenodd" d="M1.93218 9.93159H1.15816H0.670633V8.84163C0.670633 8.48692 0.868918 8.17708 1.15816 8.01669C1.29394 7.94196 1.44875 7.89844 1.61309 7.89844H2.87463C2.35591 7.89844 1.93223 8.32244 1.93223 8.84159V9.93159H1.93218Z" fill="#FFCD1B"/>
<path fill-rule="evenodd" clip-rule="evenodd" d="M1.92761 11.4144H1.15359H0.666065V10.9455V10.4019V9.93164H1.15359H1.92761V10.4019V10.9455V11.4144Z" fill="#FF5A17"/>
<path fill-rule="evenodd" clip-rule="evenodd" d="M1.93224 11.4143V13.0452C1.93224 13.5643 2.35591 13.9883 2.87463 13.9883H1.6131C1.44881 13.9883 1.29401 13.9462 1.15818 13.8715C0.868937 13.7097 0.670656 13.3999 0.670656 13.0452V11.4143H1.15818H1.93224Z" fill="#FFCD1B"/>
<path fill-rule="evenodd" clip-rule="evenodd" d="M6.71229 13.9884H3.78454V15.3352C3.78454 15.6587 4.04932 15.9223 4.37116 15.9223H13.9036C13.9036 15.0757 13.9036 14.6448 13.2558 14.6448L11.9658 14.6435C11.1537 14.6421 10.6214 14.4342 10.324 13.9884H6.71229V13.9884Z" fill="#635448"/>
<path fill-rule="evenodd" clip-rule="evenodd" d="M12.7529 15.9224H4.3703C3.87873 16.7786 3.48355 17.8074 3.82441 19.7752C4.39476 17.8345 10.1878 18.6092 10.7825 20.8489H17.1744C17.4161 20.3012 17.6442 19.7603 17.8439 19.2139H16.0419C12.3972 17.8386 13.5691 18.4515 12.7529 15.9224V15.9224Z" fill="#FF8C5E"/>
<path fill-rule="evenodd" clip-rule="evenodd" d="M13.2691 10.6615C13.1442 11.3192 12.9744 11.9675 12.7843 12.5193L10.9417 13.2412L8.88706 12.5193C8.95904 8.63104 10.412 6.76645 11.6478 6.16305C12.0932 5.82391 12.5495 5.69617 12.5495 5.69617C12.5495 5.69617 13.1497 6.65638 13.1809 6.65638C13.4117 7.20543 13.4987 7.92165 13.4837 8.69493L13.2691 10.6615Z" fill="#FFFAFA"/>
<path fill-rule="evenodd" clip-rule="evenodd" d="M8.88719 12.5192H12.7845C13.6821 12.617 14.7861 13.3006 14.7861 15.418V17.6373L13.9017 18.1641L12.752 17.6373V15.9222C12.752 15.0755 12.752 14.6447 12.1042 14.6447L10.8142 14.6433C10.0021 14.642 9.46981 14.434 9.17243 13.9883C8.9429 13.6445 8.85464 13.1593 8.88719 12.5192V12.5192Z" fill="#FF8086"/>
<path fill-rule="evenodd" clip-rule="evenodd" d="M8.88748 12.5193C8.95946 8.63107 10.4125 6.76649 11.6482 6.16309C11.8315 6.29217 12.0352 6.3982 12.2593 6.47702C11.1648 7.30466 10.0676 9.15431 10.0051 12.5193H8.88748Z" fill="#FFC8C8"/>
<path fill-rule="evenodd" clip-rule="evenodd" d="M8.88809 12.5192H10.0057C9.97307 13.1593 10.0613 13.6445 10.2908 13.9883C10.4782 14.2696 10.7607 14.5074 11.1477 14.6434H10.815C10.0029 14.642 9.47062 14.4341 9.17324 13.9883C8.9438 13.6445 8.85554 13.1593 8.88809 12.5192V12.5192Z" fill="#F76672"/>
<path fill-rule="evenodd" clip-rule="evenodd" d="M10.7798 20.8489C10.7798 18.8389 9.18691 17.2379 7.22198 17.2379C5.62366 17.2379 4.27116 18.298 3.82167 19.7752C3.72932 20.0783 3.675 20.4004 3.66552 20.7347C3.66142 20.8652 3.75108 20.8489 3.87329 20.8489C6.17499 20.8489 8.47808 20.8475 10.7798 20.8489V20.8489Z" fill="#FF8C5D"/>
<path fill-rule="evenodd" clip-rule="evenodd" d="M9.88855 20.8488H4.47304C4.55042 22.3084 5.73319 23.469 7.18079 23.469C8.6284 23.469 9.81117 22.3084 9.88855 20.8488V20.8488Z" fill="#2A333E"/>
<path fill-rule="evenodd" clip-rule="evenodd" d="M23.6404 20.2711L18.9813 21.3434C19.2773 22.6304 20.5605 23.435 21.8465 23.1387C23.1338 22.8424 23.9364 21.5581 23.6404 20.2711V20.2711Z" fill="#2A333E"/>
<path fill-rule="evenodd" clip-rule="evenodd" d="M23.9889 18.9651C23.3303 18.007 22.1869 17.4512 20.9919 17.5708C18.8844 18.0165 18.1986 19.2764 18.0615 20.8474C18.0642 21.0608 18.0873 21.2755 18.1335 21.4903C18.147 21.5501 18.1864 21.5256 18.2516 21.5106L18.9809 21.3435L23.64 20.2712L23.989 20.191L24.4764 20.0782C24.3827 19.6678 24.2144 19.2927 23.9889 18.9651Z" fill="#FFFAFA"/>
<path fill-rule="evenodd" clip-rule="evenodd" d="M20.9932 17.5653L19.111 11.0528L18.2637 10.6736L17.3158 11.0528C18.5611 14.5047 18.2135 16.9143 17.3729 19.2138C17.1719 19.7601 16.9437 20.301 16.7034 20.8487H18.0573L20.9932 17.5653Z" fill="#FF814E"/>
<path fill-rule="evenodd" clip-rule="evenodd" d="M15.1682 3.75074L12.9602 3.28052C12.7361 3.30089 12.0951 3.8391 12.0951 4.17614L12.565 6.56531C12.7605 6.62376 12.9683 6.65636 13.1829 6.65636C14.3588 6.65636 15.3121 5.70098 15.3121 4.52402C15.3121 4.25087 15.2619 3.9899 15.1682 3.75074V3.75074Z" fill="#FFECE4"/>
<path fill-rule="evenodd" clip-rule="evenodd" d="M15.8779 3.75079C15.8779 2.23139 14.6748 1.00146 13.1892 1.00146C11.7036 1.00146 10.5005 2.23139 10.5005 3.75079C10.5005 4.75374 10.9079 5.64528 11.6466 6.16307C11.91 6.34927 12.2169 6.48654 12.5618 6.56536V4.17614C12.5618 3.8391 12.7329 3.77116 12.957 3.75075H15.165H15.8779V3.75079Z" fill="#FF8C5D"/>
<path fill-rule="evenodd" clip-rule="evenodd" d="M14.598 1.4078C14.1893 1.14957 13.7072 1.00146 13.1912 1.00146C11.7056 1.00146 10.5025 2.23139 10.5025 3.75079C10.5025 4.75374 10.9099 5.64528 11.6486 6.16307C11.836 6.29491 12.0438 6.40228 12.2719 6.4811C11.726 5.92796 11.43 5.13431 11.43 4.25906C11.43 2.67172 12.6888 1.38469 14.2409 1.38469C14.3617 1.38469 14.4813 1.39148 14.598 1.4078Z" fill="#FF5A17"/>
<path fill-rule="evenodd" clip-rule="evenodd" d="M14.7886 17.6373H12.7543V18.9189C12.7543 19.1935 12.9037 19.2138 13.1237 19.2138H16.0433C16.1017 17.9282 15.3236 17.6373 14.7886 17.6373Z" fill="#635448"/>
<path fill-rule="evenodd" clip-rule="evenodd" d="M17.3764 19.2139C18.217 16.9144 18.5646 14.5048 17.3194 11.0529H18.0174C18.0201 11.0529 18.0229 11.0529 18.0256 11.0529H18.2768C19.522 14.5048 19.1757 16.9144 18.3338 19.2139C18.1342 19.7602 17.906 20.3011 17.6643 20.8488H17.1755H16.7069C16.9473 20.3011 17.1755 19.7602 17.3764 19.2139Z" fill="#FF5A17"/>
<path fill-rule="evenodd" clip-rule="evenodd" d="M18.0627 20.8474L20.9932 17.5708C21.296 17.5409 21.5961 17.5531 21.8854 17.6061L19.069 20.755C19.0717 20.9384 19.0894 21.1246 19.1247 21.3108L18.9821 21.3434L18.2528 21.5106C18.1876 21.5255 18.1483 21.55 18.1347 21.4902C18.0885 21.2755 18.0655 21.0608 18.0627 20.8474V20.8474Z" fill="#FFC8C8"/>
<path fill-rule="evenodd" clip-rule="evenodd" d="M4.37058 15.9224H12.7532V16.6603H5.86566C5.30484 16.6603 5.03867 16.9022 4.82002 17.3928C4.63127 17.8182 4.62717 17.9569 4.54166 18.4706C4.21982 18.8443 3.97266 19.2874 3.82465 19.7752C3.48384 17.8073 3.87901 16.7786 4.37058 15.9224V15.9224Z" fill="#FF5A17"/>
<path fill-rule="evenodd" clip-rule="evenodd" d="M4.5409 18.4704C5.19271 17.7134 6.15279 17.2378 7.22419 17.2378C7.49307 17.2378 7.7538 17.2677 8.005 17.3234C6.40125 17.6863 5.27958 19.1024 5.23071 20.7346C5.22801 20.8243 5.26874 20.8447 5.33389 20.8488H4.47161H3.87546C3.75325 20.8488 3.66359 20.8651 3.66769 20.7346C3.67717 20.4003 3.73149 20.0782 3.82384 19.7751C3.82654 19.7656 3.82928 19.7574 3.83198 19.7493C3.83198 19.7493 3.83198 19.7493 3.83198 19.748C3.98139 19.2709 4.22445 18.8374 4.5409 18.4704Z" fill="#FF5A17"/>
<path fill-rule="evenodd" clip-rule="evenodd" d="M19.1244 21.3108L23.641 20.2711C23.6912 20.4845 23.7089 20.6992 23.7007 20.9085L20.1158 21.7335L19.9745 21.7661C20.1076 22.3504 20.4457 22.8356 20.8952 23.1632C19.9786 23.0014 19.2032 22.3083 18.9819 21.3434L19.1244 21.3108Z" fill="#635448"/>
<path fill-rule="evenodd" clip-rule="evenodd" d="M5.33435 20.8488H9.88757C9.87265 21.1342 9.81424 21.4087 9.72054 21.6656H6.54837H5.68609C5.72004 22.3043 5.96445 22.8846 6.35013 23.3372C5.30315 22.9933 4.53322 22.0162 4.47211 20.8488H5.33435V20.8488Z" fill="#635448"/>
<path fill-rule="evenodd" clip-rule="evenodd" d="M3.78368 15.3352V13.9884H5.62371V15.3352C5.62371 15.6587 5.88849 15.9223 6.21033 15.9223H4.3703C4.04846 15.9223 3.78368 15.6587 3.78368 15.3352Z" fill="#2A333E"/>
<path fill-rule="evenodd" clip-rule="evenodd" d="M15.299 4.29561H13.4847C13.2607 4.31598 13.0895 4.38531 13.0895 4.72236V6.65353C12.9076 6.6454 12.7311 6.61549 12.5627 6.56518V4.17601C12.5627 3.83896 12.7338 3.77102 12.9579 3.75061H15.1659C15.2324 3.92188 15.2786 4.10533 15.299 4.29561V4.29561Z" fill="#FFDDCE"/>
<path fill-rule="evenodd" clip-rule="evenodd" d="M19.5072 9.0021L16.9665 9.84197C16.8415 9.95339 16.9827 11.0896 17.0669 11.0529H19.1147H20.0205V9.18286C20.0205 8.81456 19.829 8.89608 19.5072 9.0021V9.0021Z" fill="#FFE07D"/>
<path fill-rule="evenodd" clip-rule="evenodd" d="M15.7842 11.0529H15.9974H17.0688C17.7587 11.0529 17.779 9.90856 16.9683 9.84197L15.7842 9.74683L15.4664 10.4196L15.7842 11.0529Z" fill="#FFECE4"/>
<path fill-rule="evenodd" clip-rule="evenodd" d="M13.4851 8.69494L13.06 8.32934C11.9954 7.412 10.6497 8.95995 12.0728 9.88408L13.2705 10.6615L13.8735 11.0529H15.7814V9.74681L14.5959 9.65032L13.4851 8.69494Z" fill="#FF8086"/>
<path fill-rule="evenodd" clip-rule="evenodd" d="M15.7838 11.0529V10.4196H16.0378H16.1749H16.3895H17.4609C17.5016 10.4196 17.5396 10.4169 17.5763 10.4087C17.6157 10.724 17.4378 11.0529 17.0684 11.0529H15.997H15.7838Z" fill="#FFDDCE"/>
<path fill-rule="evenodd" clip-rule="evenodd" d="M12.0728 9.88408C11.2119 9.32415 11.364 8.53729 11.8541 8.20569C11.8148 8.54543 11.9764 8.93549 12.4652 9.25217L13.3981 9.85692L13.6616 10.0295L14.2645 10.4196H15.7814V11.0529H13.8734L13.2705 10.6615L12.0728 9.88408Z" fill="#F76672"/>
<path fill-rule="evenodd" clip-rule="evenodd" d="M16.9664 9.84193L17.9889 9.50488C18.3311 9.87183 18.4968 10.5867 18.2768 11.0528H17.3195H17.0669C17.4363 11.0528 17.6141 10.7239 17.5748 10.4086C17.5395 10.1355 17.3426 9.87318 16.9664 9.84193V9.84193Z" fill="#FFC269"/>
</g>
<defs>
<clipPath id="clip0_507_938">
<rect width="23.8089" height="23.8089" fill="white" transform="matrix(-1 0 0 1 24.4756 0.330688)"/>
</clipPath>
</defs>
</svg>
