<svg width="14" height="14" viewBox="0 0 14 14" fill="none" xmlns="http://www.w3.org/2000/svg">
<mask id="mask0_696_1212" style="mask-type:alpha" maskUnits="userSpaceOnUse" x="0" y="0" width="14" height="14">
<path d="M11.6454 3.22169C11.6454 2.77856 11.2806 2.42076 10.8321 2.42076C10.3836 2.42076 10.0184 2.77856 10.0184 3.22169C10.0184 3.66319 10.3836 4.021 10.8321 4.021C11.2806 4.021 11.6454 3.66319 11.6454 3.22169Z" fill="url(#paint0_linear_696_1212)"/>
<path d="M12.7289 9.47125C12.6988 10.1213 12.5884 10.4745 12.4967 10.7091C12.3735 11.0201 12.2266 11.2425 11.9883 11.4757C11.7526 11.709 11.5267 11.8533 11.2107 11.9732C10.9724 12.0648 10.6123 12.1739 9.95195 12.2049C9.23803 12.2358 9.02649 12.2424 7.2161 12.2424C5.40739 12.2424 5.19417 12.2358 4.48026 12.2049C3.81991 12.1739 3.46145 12.0648 3.22313 11.9732C2.9055 11.8533 2.68126 11.709 2.4443 11.4757C2.20565 11.2425 2.05872 11.0201 1.93723 10.7091C1.8455 10.4745 1.73339 10.1213 1.70493 9.47125C1.67014 8.76849 1.66376 8.55697 1.66376 6.7785C1.66376 4.99639 1.67014 4.7865 1.70493 4.08374C1.73339 3.43372 1.8455 3.08085 1.93723 2.84428C2.05872 2.5336 2.20565 2.31251 2.4443 2.07925C2.68126 1.84633 2.9055 1.70167 3.22313 1.58045C3.46145 1.48852 3.81991 1.38111 4.48026 1.35015C5.19417 1.31916 5.40739 1.31125 7.2161 1.31125C9.02649 1.31125 9.23803 1.31916 9.95195 1.35015C10.6123 1.38111 10.9724 1.48852 11.2107 1.58045C11.5267 1.70167 11.7526 1.84633 11.9883 2.07925C12.2266 2.31251 12.3735 2.5336 12.4967 2.84428C12.5884 3.08085 12.6988 3.43372 12.7289 4.08374C12.7621 4.7865 12.7701 4.99639 12.7701 6.7785C12.7701 8.55697 12.7621 8.76849 12.7289 9.47125ZM13.9483 4.02906C13.9151 3.31871 13.8013 2.8334 13.6323 2.41071C13.4603 1.97218 13.2297 1.60054 12.8521 1.22889C12.4763 0.858907 12.0987 0.631894 11.6532 0.460578C11.2221 0.295835 10.7308 0.182488 10.0088 0.151526C9.28688 0.117253 9.05629 0.111001 7.2161 0.111001C5.3776 0.111001 5.14532 0.117253 4.42338 0.151526C3.70309 0.182488 3.21208 0.295835 2.77899 0.460578C2.33518 0.631894 1.95764 0.858907 1.58178 1.22889C1.20423 1.60054 0.973618 1.97218 0.799909 2.41071C0.632551 2.8334 0.518761 3.31871 0.483944 4.02906C0.452491 4.73973 0.444458 4.96706 0.444458 6.7785C0.444458 8.58828 0.452491 8.81526 0.483944 9.52593C0.518761 10.235 0.632551 10.7199 0.799909 11.1446C0.973618 11.5815 1.20423 11.9548 1.58178 12.3248C1.95764 12.6948 2.33518 12.9234 2.77899 13.0944C3.21208 13.2592 3.70309 13.3712 4.42338 13.4038C5.14532 13.4364 5.3776 13.4443 7.2161 13.4443C9.05629 13.4443 9.28688 13.4364 10.0088 13.4038C10.7308 13.3712 11.2221 13.2592 11.6532 13.0944C12.0987 12.9234 12.4763 12.6948 12.8521 12.3248C13.2297 11.9548 13.4603 11.5815 13.6323 11.1446C13.8013 10.7199 13.9151 10.235 13.9483 9.52593C13.9814 8.81526 13.9894 8.58828 13.9894 6.7785C13.9894 4.96706 13.9814 4.73973 13.9483 4.02906Z" fill="url(#paint1_linear_696_1212)"/>
<path d="M7.21614 8.99878C5.97006 8.99878 4.95893 8.00508 4.95893 6.77846C4.95893 5.54987 5.97006 4.55489 7.21614 4.55489C8.46258 4.55489 9.47504 5.54987 9.47504 6.77846C9.47504 8.00508 8.46258 8.99878 7.21614 8.99878ZM7.21614 3.35298C5.2953 3.35298 3.73962 4.88763 3.73962 6.77846C3.73962 8.66766 5.2953 10.2007 7.21614 10.2007C9.13698 10.2007 10.6943 8.66766 10.6943 6.77846C10.6943 4.88763 9.13698 3.35298 7.21614 3.35298Z" fill="url(#paint2_linear_696_1212)"/>
</mask>
<g mask="url(#mask0_696_1212)">
<rect x="-0.444458" y="-0.777832" width="15.1111" height="15.1111" fill="white"/>
</g>
<defs>
<linearGradient id="paint0_linear_696_1212" x1="0.566897" y1="13.3089" x2="12.6679" y2="1.01592" gradientUnits="userSpaceOnUse">
<stop stop-color="#FFD521"/>
<stop offset="0.05" stop-color="#FFD521"/>
<stop offset="0.501119" stop-color="#F50000"/>
<stop offset="0.95" stop-color="#B900B4"/>
<stop offset="0.950079" stop-color="#B900B4"/>
<stop offset="1" stop-color="#B900B4"/>
</linearGradient>
<linearGradient id="paint1_linear_696_1212" x1="0.566632" y1="13.3231" x2="12.6776" y2="1.01988" gradientUnits="userSpaceOnUse">
<stop stop-color="#FFD521"/>
<stop offset="0.05" stop-color="#FFD521"/>
<stop offset="0.501119" stop-color="#F50000"/>
<stop offset="0.95" stop-color="#B900B4"/>
<stop offset="0.950079" stop-color="#B900B4"/>
<stop offset="1" stop-color="#B900B4"/>
</linearGradient>
<linearGradient id="paint2_linear_696_1212" x1="0.569859" y1="13.3234" x2="12.6779" y2="1.02314" gradientUnits="userSpaceOnUse">
<stop stop-color="#FFD521"/>
<stop offset="0.05" stop-color="#FFD521"/>
<stop offset="0.501119" stop-color="#F50000"/>
<stop offset="0.95" stop-color="#B900B4"/>
<stop offset="0.950079" stop-color="#B900B4"/>
<stop offset="1" stop-color="#B900B4"/>
</linearGradient>
</defs>
</svg>
