<svg width="12" height="16" viewBox="0 0 12 16" fill="none" xmlns="http://www.w3.org/2000/svg">
<path fill-rule="evenodd" clip-rule="evenodd" d="M10.3137 8.88862C10.7399 7.89664 10.9694 7.04953 10.9694 6.45001C10.9694 3.8311 8.84639 1.70805 6.22748 1.70805C3.60857 1.70805 1.48552 3.8311 1.48552 6.45001C1.48552 7.04953 1.71502 7.89664 2.14126 8.88862C2.55917 9.86121 3.13305 10.898 3.74512 11.8512C4.3577 12.8052 4.99478 13.6541 5.53007 14.2548C5.79954 14.5571 6.02729 14.7785 6.20065 14.9172C6.20994 14.9246 6.21889 14.9317 6.22748 14.9383C6.23608 14.9317 6.24502 14.9246 6.25431 14.9172C6.42768 14.7785 6.65542 14.5571 6.92489 14.2548C7.46018 13.6541 8.09726 12.8052 8.70984 11.8512C9.32191 10.898 9.89579 9.86121 10.3137 8.88862ZM6.22748 15.834C7.27014 15.834 11.7883 9.52119 11.7883 6.45001C11.7883 3.37884 9.29866 0.88916 6.22748 0.88916C3.15631 0.88916 0.666626 3.37884 0.666626 6.45001C0.666626 9.52119 5.18482 15.834 6.22748 15.834Z" fill="white"/>
<path fill-rule="evenodd" clip-rule="evenodd" d="M6.05367 8.4115C7.04102 8.4115 7.84143 7.61109 7.84143 6.62374C7.84143 5.63639 7.04102 4.83598 6.05367 4.83598C5.06632 4.83598 4.26591 5.63639 4.26591 6.62374C4.26591 7.61109 5.06632 8.4115 6.05367 8.4115ZM6.05367 9.23039C7.49329 9.23039 8.66032 8.06335 8.66032 6.62374C8.66032 5.18413 7.49329 4.01709 6.05367 4.01709C4.61406 4.01709 3.44702 5.18413 3.44702 6.62374C3.44702 8.06335 4.61406 9.23039 6.05367 9.23039Z" fill="white"/>
</svg>
