<svg width="102" height="31" viewBox="0 0 102 31" fill="none" xmlns="http://www.w3.org/2000/svg">
<path d="M7.29919 30.2964H3.28852L6.58808 23.0147L0.643188 10.7835H4.88141L8.60763 18.9755L12.0494 10.7835H16.0885L7.29919 30.2964Z" fill="white"/>
<path d="M17.1103 20.9667C17.1103 19.772 17.499 18.8144 18.2765 18.0938C19.054 17.3732 20.059 16.9181 21.2916 16.7284L24.7334 16.2164C25.435 16.1216 25.7859 15.7898 25.7859 15.2209C25.7859 14.6899 25.5773 14.2538 25.1601 13.9124C24.7619 13.5711 24.1835 13.4004 23.425 13.4004C22.6285 13.4004 21.9933 13.6185 21.5192 14.0547C21.0641 14.4908 20.8081 15.0313 20.7512 15.676L17.3947 14.9649C17.5275 13.7513 18.1248 12.6798 19.1867 11.7507C20.2487 10.8215 21.6519 10.3569 23.3965 10.3569C25.4824 10.3569 27.0184 10.8594 28.0045 11.8644C28.9906 12.8505 29.4836 14.121 29.4836 15.676V22.5595C29.4836 23.3939 29.5405 24.1335 29.6543 24.7782H26.1841C26.0893 24.361 26.0419 23.8016 26.0419 23.1C25.1506 24.4843 23.7758 25.1764 21.9174 25.1764C20.4762 25.1764 19.31 24.7593 18.4187 23.9249C17.5464 23.0905 17.1103 22.1044 17.1103 20.9667ZM22.7139 22.3604C23.6051 22.3604 24.3352 22.1139 24.9041 21.6209C25.4919 21.1089 25.7859 20.2745 25.7859 19.1178V18.492L22.6285 18.9755C21.4718 19.1462 20.8934 19.7341 20.8934 20.7391C20.8934 21.1942 21.0546 21.583 21.377 21.9053C21.6993 22.2087 22.145 22.3604 22.7139 22.3604Z" fill="white"/>
<path d="M37.0801 16.7284V24.7782H33.297V10.7835H36.9663V12.5187C37.3645 11.836 37.9334 11.3145 38.673 10.9542C39.4125 10.5939 40.19 10.4138 41.0054 10.4138C42.6552 10.4138 43.9067 10.9353 44.7601 11.9782C45.6324 13.0022 46.0685 14.3296 46.0685 15.9604V24.7782H42.2854V16.6147C42.2854 15.7803 42.0673 15.1071 41.6312 14.5951C41.214 14.0831 40.5693 13.8271 39.697 13.8271C38.9005 13.8271 38.2653 14.1021 37.7912 14.652C37.3171 15.2019 37.0801 15.8941 37.0801 16.7284Z" fill="white"/>
<path d="M53.6912 16.7284V24.7782H49.9081V10.7835H53.5774V12.5187C53.9756 11.836 54.5445 11.3145 55.2841 10.9542C56.0236 10.5939 56.8011 10.4138 57.6165 10.4138C59.2663 10.4138 60.5179 10.9353 61.3712 11.9782C62.2435 13.0022 62.6796 14.3296 62.6796 15.9604V24.7782H58.8965V16.6147C58.8965 15.7803 58.6785 15.1071 58.2423 14.5951C57.8251 14.0831 57.1804 13.8271 56.3081 13.8271C55.5116 13.8271 54.8764 14.1021 54.4023 14.652C53.9282 15.2019 53.6912 15.8941 53.6912 16.7284Z" fill="white"/>
<path d="M65.6659 20.9667C65.6659 19.772 66.0546 18.8144 66.8321 18.0938C67.6096 17.3732 68.6146 16.9181 69.8472 16.7284L73.289 16.2164C73.9906 16.1216 74.3414 15.7898 74.3414 15.2209C74.3414 14.6899 74.1328 14.2538 73.7156 13.9124C73.3174 13.5711 72.739 13.4004 71.9805 13.4004C71.1841 13.4004 70.5488 13.6185 70.0747 14.0547C69.6196 14.4908 69.3636 15.0313 69.3067 15.676L65.9503 14.9649C66.083 13.7513 66.6804 12.6798 67.7423 11.7507C68.8042 10.8215 70.2075 10.3569 71.9521 10.3569C74.038 10.3569 75.574 10.8594 76.5601 11.8644C77.5462 12.8505 78.0392 14.121 78.0392 15.676V22.5595C78.0392 23.3939 78.0961 24.1335 78.2099 24.7782H74.7396C74.6448 24.361 74.5974 23.8016 74.5974 23.1C73.7062 24.4843 72.3313 25.1764 70.473 25.1764C69.0318 25.1764 67.8656 24.7593 66.9743 23.9249C66.102 23.0905 65.6659 22.1044 65.6659 20.9667ZM71.2694 22.3604C72.1607 22.3604 72.8907 22.1139 73.4596 21.6209C74.0475 21.1089 74.3414 20.2745 74.3414 19.1178V18.492L71.1841 18.9755C70.0273 19.1462 69.449 19.7341 69.449 20.7391C69.449 21.1942 69.6102 21.583 69.9325 21.9053C70.2549 22.2087 70.7005 22.3604 71.2694 22.3604Z" fill="white"/>
<path d="M85.6356 24.7782H81.8525V4.18444H85.6356V24.7782Z" fill="white"/>
<path d="M92.1134 1.53199H89.6494V7.88933H88.3694V1.53199H85.9161V0.32666H92.1134V1.53199Z" fill="white"/>
<path d="M101.483 7.88933H100.214V2.32133L97.8566 7.88933H96.7472L94.4112 2.34266V7.88933H93.1632V0.32666H94.8699L97.3232 6.09733L99.7446 0.32666H101.483V7.88933Z" fill="white"/>
</svg>
