<svg width="102" height="31" viewBox="0 0 102 31" fill="none" xmlns="http://www.w3.org/2000/svg">
<path d="M7.41064 30.6293H3.39997L6.69953 23.3476L0.754639 11.1165H4.99286L8.71908 19.3085L12.1609 11.1165H16.2L7.41064 30.6293Z" fill="#2A333E"/>
<path d="M17.2218 21.2996C17.2218 20.1049 17.6105 19.1473 18.388 18.4267C19.1655 17.7061 20.1705 17.251 21.4031 17.0613L24.8449 16.5493C25.5465 16.4545 25.8973 16.1227 25.8973 15.5538C25.8973 15.0228 25.6887 14.5867 25.2715 14.2453C24.8733 13.904 24.2949 13.7333 23.5364 13.7333C22.74 13.7333 22.1047 13.9514 21.6306 14.3876C21.1755 14.8237 20.9195 15.3642 20.8626 16.0089L17.5062 15.2978C17.6389 14.0842 18.2363 13.0127 19.2982 12.0836C20.3601 11.1544 21.7634 10.6898 23.508 10.6898C25.5939 10.6898 27.1299 11.1923 28.116 12.1973C29.102 13.1834 29.5951 14.4539 29.5951 16.0089V22.8925C29.5951 23.7268 29.652 24.4664 29.7658 25.1111H26.2955C26.2007 24.6939 26.1533 24.1345 26.1533 23.4329C25.262 24.8172 23.8872 25.5093 22.0289 25.5093C20.5877 25.5093 19.4215 25.0922 18.5302 24.2578C17.6579 23.4234 17.2218 22.4373 17.2218 21.2996ZM22.8253 22.6933C23.7166 22.6933 24.4466 22.4468 25.0155 21.9538C25.6034 21.4418 25.8973 20.6074 25.8973 19.4507V18.8249L22.74 19.3085C21.5832 19.4791 21.0049 20.067 21.0049 21.072C21.0049 21.5271 21.166 21.9159 21.4884 22.2382C21.8108 22.5416 22.2564 22.6933 22.8253 22.6933Z" fill="#2A333E"/>
<path d="M37.1915 17.0613V25.1111H33.4084V11.1165H37.0777V12.8516C37.476 12.1689 38.0449 11.6474 38.7844 11.2871C39.524 10.9268 40.3015 10.7467 41.1169 10.7467C42.7666 10.7467 44.0182 11.2682 44.8715 12.3111C45.7438 13.3351 46.18 14.6625 46.18 16.2933V25.1111H42.3969V16.9476C42.3969 16.1132 42.1788 15.44 41.7426 14.928C41.3255 14.416 40.6807 14.16 39.8084 14.16C39.012 14.16 38.3767 14.435 37.9026 14.9849C37.4286 15.5348 37.1915 16.227 37.1915 17.0613Z" fill="#2A333E"/>
<path d="M53.8026 17.0613V25.1111H50.0195V11.1165H53.6889V12.8516C54.0871 12.1689 54.656 11.6474 55.3955 11.2871C56.1351 10.9268 56.9126 10.7467 57.728 10.7467C59.3778 10.7467 60.6293 11.2682 61.4826 12.3111C62.3549 13.3351 62.7911 14.6625 62.7911 16.2933V25.1111H59.008V16.9476C59.008 16.1132 58.7899 15.44 58.3538 14.928C57.9366 14.416 57.2918 14.16 56.4195 14.16C55.6231 14.16 54.9878 14.435 54.5138 14.9849C54.0397 15.5348 53.8026 16.227 53.8026 17.0613Z" fill="#2A333E"/>
<path d="M65.7773 21.2996C65.7773 20.1049 66.166 19.1473 66.9435 18.4267C67.721 17.7061 68.726 17.251 69.9586 17.0613L73.4004 16.5493C74.1021 16.4545 74.4529 16.1227 74.4529 15.5538C74.4529 15.0228 74.2443 14.5867 73.8271 14.2453C73.4289 13.904 72.8505 13.7333 72.092 13.7333C71.2955 13.7333 70.6603 13.9514 70.1862 14.3876C69.7311 14.8237 69.4751 15.3642 69.4182 16.0089L66.0617 15.2978C66.1945 14.0842 66.7918 13.0127 67.8538 12.0836C68.9157 11.1544 70.3189 10.6898 72.0635 10.6898C74.1495 10.6898 75.6855 11.1923 76.6715 12.1973C77.6576 13.1834 78.1506 14.4539 78.1506 16.0089V22.8925C78.1506 23.7268 78.2075 24.4664 78.3213 25.1111H74.8511C74.7563 24.6939 74.7089 24.1345 74.7089 23.4329C73.8176 24.8172 72.4428 25.5093 70.5844 25.5093C69.1432 25.5093 67.977 25.0922 67.0857 24.2578C66.2135 23.4234 65.7773 22.4373 65.7773 21.2996ZM71.3809 22.6933C72.2721 22.6933 73.0022 22.4468 73.5711 21.9538C74.1589 21.4418 74.4529 20.6074 74.4529 19.4507V18.8249L71.2955 19.3085C70.1388 19.4791 69.5604 20.067 69.5604 21.072C69.5604 21.5271 69.7216 21.9159 70.044 22.2382C70.3663 22.5416 70.812 22.6933 71.3809 22.6933Z" fill="#2A333E"/>
<path d="M85.7471 25.1111H81.964V4.51734H85.7471V25.1111Z" fill="#2A333E"/>
<path d="M92.2249 1.86489H89.7609V8.22223H88.4809V1.86489H86.0275V0.659561H92.2249V1.86489Z" fill="#2A333E"/>
<path d="M101.595 8.22223H100.325V2.65423L97.968 8.22223H96.8587L94.5227 2.67556V8.22223H93.2747V0.659561H94.9814L97.4347 6.43023L99.856 0.659561H101.595V8.22223Z" fill="#2A333E"/>
</svg>
