<svg width="15" height="15" viewBox="0 0 15 13" fill="none" xmlns="http://www.w3.org/2000/svg">
<path d="M6.70139 2.32249L7.22197 2.97321L7.74255 2.32249C7.79715 2.25424 7.83359 2.20596 7.86227 2.16796C7.90593 2.11012 7.93161 2.07608 7.97604 2.03165C9.27747 0.730226 11.3887 0.730226 12.6901 2.03165C13.9894 3.33098 13.9915 5.43748 12.6964 6.73941L7.22197 11.9156L1.74753 6.73942C0.452397 5.43749 0.454496 3.33098 1.75382 2.03165C3.05525 0.730226 5.16647 0.730226 6.4679 2.03165C6.51233 2.07608 6.53802 2.11011 6.58167 2.16796C6.61035 2.20596 6.64679 2.25424 6.70139 2.32249Z" stroke="white" stroke-width="1.33333"/>
</svg>
