<svg width="23" height="22" viewBox="0 0 23 22" fill="none" xmlns="http://www.w3.org/2000/svg">
<path fill-rule="evenodd" clip-rule="evenodd" d="M5.95433 6.72213L9.8642 2.97518C10.8097 2.06907 12.3013 2.06906 13.2468 2.97518L17.1567 6.72213H19.4195C19.9605 6.72213 20.376 7.20123 20.2995 7.73673L18.9937 16.877C18.806 18.1908 17.6809 19.1666 16.3539 19.1666H6.75721C5.43015 19.1666 4.30502 18.1908 4.11735 16.877L2.81159 7.73673C2.73509 7.20123 3.15061 6.72213 3.69155 6.72213H5.95433ZM10.7867 3.93783C11.2165 3.52596 11.8945 3.52596 12.3243 3.93783L15.2297 6.72213H7.88138L10.7867 3.93783ZM4.204 8.05547L5.43728 16.6885C5.53112 17.3453 6.09368 17.8332 6.75721 17.8332H16.3539C17.0174 17.8332 17.58 17.3453 17.6738 16.6885L18.9071 8.05547H4.204Z" fill="#2A333E"/>
<path fill-rule="evenodd" clip-rule="evenodd" d="M7.99992 10.4999C8.36811 10.4999 8.66659 10.7984 8.66659 11.1666V14.7221C8.66659 15.0903 8.36811 15.3888 7.99992 15.3888C7.63173 15.3888 7.33325 15.0903 7.33325 14.7221V11.1666C7.33325 10.7984 7.63173 10.4999 7.99992 10.4999Z" fill="#2A333E"/>
<path fill-rule="evenodd" clip-rule="evenodd" d="M11.5556 10.4999C11.9238 10.4999 12.2222 10.7984 12.2222 11.1666V14.7221C12.2222 15.0903 11.9238 15.3888 11.5556 15.3888C11.1874 15.3888 10.8889 15.0903 10.8889 14.7221V11.1666C10.8889 10.7984 11.1874 10.4999 11.5556 10.4999Z" fill="#2A333E"/>
<path fill-rule="evenodd" clip-rule="evenodd" d="M15.111 10.4999C15.4792 10.4999 15.7777 10.7984 15.7777 11.1666V14.7221C15.7777 15.0903 15.4792 15.3888 15.111 15.3888C14.7428 15.3888 14.4443 15.0903 14.4443 14.7221V11.1666C14.4443 10.7984 14.7428 10.4999 15.111 10.4999Z" fill="#2A333E"/>
</svg>
