<svg width="22" height="22" viewBox="0 0 22 22" fill="none" xmlns="http://www.w3.org/2000/svg">
<path fill-rule="evenodd" clip-rule="evenodd" d="M16.2198 15.4436C17.3996 14.0498 18.1111 12.2468 18.1111 10.2777C18.1111 5.8594 14.5294 2.27768 10.1111 2.27768C5.69281 2.27768 2.11108 5.8594 2.11108 10.2777C2.11108 14.696 5.69281 18.2777 10.1111 18.2777C12.0802 18.2777 13.8832 17.5662 15.277 16.3864L17.6397 18.7491C17.9 19.0094 18.3221 19.0094 18.5825 18.7491C18.8428 18.4887 18.8428 18.0666 18.5825 17.8063L16.2198 15.4436ZM16.7777 10.2777C16.7777 13.9596 13.793 16.9443 10.1111 16.9443C6.42919 16.9443 3.44442 13.9596 3.44442 10.2777C3.44442 6.59578 6.42919 3.61101 10.1111 3.61101C13.793 3.61101 16.7777 6.59578 16.7777 10.2777Z" fill="#2A333E"/>
</svg>
