<svg width="22" height="22" viewBox="0 0 22 22" fill="none" xmlns="http://www.w3.org/2000/svg">
<path fill-rule="evenodd" clip-rule="evenodd" d="M11.1112 9.83324C12.8294 9.83324 14.2223 8.44034 14.2223 6.72212C14.2223 5.0039 12.8294 3.61101 11.1112 3.61101C9.39297 3.61101 8.00008 5.0039 8.00008 6.72212C8.00008 8.44034 9.39297 9.83324 11.1112 9.83324ZM11.1112 11.1666C13.5658 11.1666 15.5556 9.17672 15.5556 6.72212C15.5556 4.26753 13.5658 2.27768 11.1112 2.27768C8.65659 2.27768 6.66675 4.26753 6.66675 6.72212C6.66675 9.17672 8.65659 11.1666 11.1112 11.1666Z" fill="#2A333E"/>
<path fill-rule="evenodd" clip-rule="evenodd" d="M8.44436 14.4999C6.35795 14.4999 4.66659 16.1913 4.66659 18.2777V19.1666C4.66659 19.5348 4.36811 19.8332 3.99992 19.8332C3.63173 19.8332 3.33325 19.5348 3.33325 19.1666V18.2777C3.33325 15.4549 5.62157 13.1666 8.44436 13.1666H13.7777C16.6005 13.1666 18.8888 15.4549 18.8888 18.2777V19.1666C18.8888 19.5348 18.5903 19.8332 18.2221 19.8332C17.854 19.8332 17.5555 19.5348 17.5555 19.1666V18.2777C17.5555 16.1913 15.8641 14.4999 13.7777 14.4999H8.44436Z" fill="#2A333E"/>
</svg>
