<svg width="158" height="48" viewBox="0 0 158 48" fill="none" xmlns="http://www.w3.org/2000/svg">
<rect x="0.756836" y="0.83374" width="156.919" height="46.2144" rx="8.88889" fill="#2A333E"/>
<path d="M79.8591 25.7113C77.4814 25.7113 75.5434 27.5198 75.5434 30.0108C75.5434 32.4866 77.4814 34.3103 79.8591 34.3103C82.2379 34.3103 84.1758 32.4866 84.1758 30.0108C84.1748 27.5198 82.2369 25.7113 79.8591 25.7113ZM79.8591 32.618C78.556 32.618 77.4329 31.5434 77.4329 30.0118C77.4329 28.4641 78.5571 27.4056 79.8591 27.4056C81.1622 27.4056 82.2854 28.4641 82.2854 30.0118C82.2854 31.5424 81.1622 32.618 79.8591 32.618ZM70.4433 25.7113C68.0655 25.7113 66.1276 27.5198 66.1276 30.0108C66.1276 32.4866 68.0655 34.3103 70.4433 34.3103C72.822 34.3103 74.76 32.4866 74.76 30.0108C74.76 27.5198 72.822 25.7113 70.4433 25.7113ZM70.4433 32.618C69.1402 32.618 68.017 31.5434 68.017 30.0118C68.017 28.4641 69.1412 27.4056 70.4433 27.4056C71.7464 27.4056 72.8695 28.4641 72.8695 30.0118C72.8705 31.5424 71.7464 32.618 70.4433 32.618ZM59.2441 27.0316V28.8553H63.6093C63.4789 29.8814 63.1372 30.6305 62.6155 31.1511C61.9807 31.786 60.9869 32.4866 59.2441 32.4866C56.557 32.4866 54.4563 30.3201 54.4563 27.6331C54.4563 24.946 56.557 22.7795 59.2441 22.7795C60.6938 22.7795 61.7522 23.3497 62.5337 24.0826L63.8206 22.7957C62.7288 21.7534 61.2801 20.9558 59.2441 20.9558C55.5632 20.9558 52.4687 23.9522 52.4687 27.6331C52.4687 31.3139 55.5632 34.3103 59.2441 34.3103C61.2306 34.3103 62.7298 33.6583 63.9015 32.437C65.1065 31.232 65.4816 29.5377 65.4816 28.1699C65.4816 27.7473 65.4492 27.3561 65.3835 27.0305H59.2441V27.0316ZM105.048 28.4479C104.69 27.4875 103.598 25.7113 101.367 25.7113C99.1519 25.7113 97.311 27.4541 97.311 30.0108C97.311 32.4209 99.1357 34.3103 101.578 34.3103C103.548 34.3103 104.689 33.1053 105.162 32.4047L103.696 31.4271C103.208 32.1439 102.54 32.616 101.578 32.616C100.618 32.616 99.9334 32.1762 99.4936 31.3129L105.243 28.9352L105.048 28.4479ZM99.1843 29.8814C99.1357 28.2194 100.471 27.3733 101.433 27.3733C102.182 27.3733 102.817 27.7483 103.029 28.2851L99.1843 29.8814ZM94.5107 34.0505H96.3991V21.4128H94.5107V34.0505ZM91.4152 26.6727H91.3505C90.9269 26.1672 90.1121 25.7113 89.087 25.7113C86.9367 25.7113 84.9664 27.6007 84.9664 30.028C84.9664 32.4381 86.9367 34.3113 89.087 34.3113C90.1131 34.3113 90.9269 33.8554 91.3505 33.3348H91.4152V33.9535C91.4152 35.5983 90.5357 36.4778 89.1193 36.4778C87.9628 36.4778 87.2461 35.6478 86.9529 34.9472L85.3081 35.6316C85.7802 36.7709 87.0338 38.1721 89.1193 38.1721C91.3343 38.1721 93.2076 36.869 93.2076 33.6926V25.9731H91.4162V26.6727H91.4152ZM89.2498 32.618C87.9467 32.618 86.8559 31.5262 86.8559 30.028C86.8559 28.5126 87.9467 27.4056 89.2498 27.4056C90.5357 27.4056 91.5456 28.5126 91.5456 30.028C91.5456 31.5262 90.5357 32.618 89.2498 32.618ZM113.897 21.4128H109.378V34.0505H111.263V29.2627H113.896C115.987 29.2627 118.043 27.7493 118.043 25.3382C118.043 22.9271 115.988 21.4128 113.897 21.4128ZM113.946 27.5037H111.263V23.1718H113.946C115.356 23.1718 116.157 24.3394 116.157 25.3382C116.157 26.3168 115.356 27.5037 113.946 27.5037ZM125.604 25.689C124.238 25.689 122.824 26.2905 122.239 27.624L123.913 28.3225C124.271 27.624 124.938 27.3955 125.636 27.3955C126.612 27.3955 127.604 27.9808 127.62 29.0211V29.1515C127.278 28.9564 126.546 28.6642 125.653 28.6642C123.848 28.6642 122.01 29.656 122.01 31.509C122.01 33.2003 123.49 34.2891 125.148 34.2891C126.416 34.2891 127.116 33.7199 127.554 33.0527H127.619V34.0283H129.441V29.1828C129.442 26.9406 127.766 25.689 125.604 25.689ZM125.376 32.615C124.759 32.615 123.897 32.3056 123.897 31.5414C123.897 30.5658 124.97 30.1918 125.897 30.1918C126.725 30.1918 127.117 30.3707 127.62 30.6143C127.473 31.786 126.465 32.615 125.376 32.615ZM136.074 25.965L133.912 31.4443H133.847L131.603 25.965H129.571L132.937 33.6229L131.018 37.883H132.985L138.172 25.965H136.074ZM119.085 34.0505H120.97V21.4128H119.085V34.0505Z" fill="white"/>
<path fill-rule="evenodd" clip-rule="evenodd" d="M83.1686 10.5989C82.2654 10.5989 81.5076 10.9127 80.8996 11.5382C80.2909 12.1634 79.9877 12.9298 79.9877 13.8324C79.9877 14.7349 80.2909 15.5013 80.8996 16.1265C81.5076 16.752 82.2654 17.0648 83.1686 17.0648C84.0718 17.0648 84.8297 16.752 85.4387 16.1264C86.0463 15.5013 86.3505 14.735 86.3505 13.8324C86.3505 12.9346 86.0451 12.1703 85.4347 11.5423C84.8238 10.9139 84.067 10.5989 83.1686 10.5989ZM80.9117 13.8324C80.9117 13.1418 81.1317 12.5783 81.5664 12.1367C82.003 11.6951 82.5354 11.4743 83.1686 11.4743C83.8019 11.4743 84.3353 11.6943 84.7708 12.1366C85.2065 12.5783 85.4266 13.1417 85.4266 13.8324C85.4266 14.523 85.2065 15.0865 84.7708 15.5281C84.3352 15.9695 83.8018 16.1904 83.1686 16.1904C82.5354 16.1904 82.003 15.9706 81.5665 15.5282C81.1317 15.0865 80.9117 14.523 80.9117 13.8324Z" fill="white"/>
<path d="M55.934 10.6009C55.042 10.6009 54.2806 10.9106 53.6567 11.5303C53.0313 12.1495 52.7188 12.9183 52.7188 13.8333C52.7188 14.7474 53.0314 15.5162 53.6567 16.1363C54.2806 16.7551 55.042 17.0648 55.934 17.0648C56.8631 17.0648 57.6245 16.76 58.2081 16.1477C58.7245 15.63 58.9795 14.9384 58.9795 14.078C58.9795 13.9275 58.966 13.7708 58.9349 13.608L58.9249 13.5558H55.8688V14.4131H58.065C58.012 14.8929 57.8491 15.2638 57.5819 15.5319C57.1429 15.9709 56.5945 16.1903 55.933 16.1903C55.311 16.1903 54.7749 15.9725 54.3206 15.535C53.8686 15.0996 53.6417 14.5338 53.6417 13.8323C53.6417 13.1309 53.8686 12.565 54.3206 12.1296C54.7749 11.6921 55.311 11.4743 55.933 11.4743C56.6234 11.4743 57.1573 11.7074 57.5447 12.1711L57.5898 12.225L58.2137 11.5999L58.1759 11.5549C57.9319 11.2639 57.6066 11.0329 57.2038 10.8598C56.8014 10.6875 56.3773 10.6009 55.934 10.6009Z" fill="white"/>
<path d="M63.64 10.7354H59.9703V16.9294H63.64V16.0549H60.8781V14.2605H63.3691V13.4032H60.8781V11.6088H63.64V10.7354Z" fill="white"/>
<path d="M68.6208 10.7354H64.3243V11.6088H66.0187V16.9294H66.9265V11.6088H68.6208V10.7354Z" fill="white"/>
<path d="M72.4158 10.7354H71.508V16.9294H72.4158V10.7354Z" fill="white"/>
<path d="M77.5667 10.7354H73.2702V11.6088H74.9646V16.9294H75.8724V11.6088H77.5667V10.7354Z" fill="white"/>
<path d="M88.3641 10.7354H87.316V16.9294H88.2218L88.2218 13.0863L88.1936 12.0967L91.2064 16.9294H92.12V10.7354H91.2122V14.349L91.2122 14.3508L91.2404 15.3389L88.3641 10.7354Z" fill="white"/>
<g filter="url(#filter0_ii_507_684)">
<path d="M21.5269 11.3416C21.2327 11.653 21.0588 12.1362 21.0588 12.762V35.1199C21.0588 35.7467 21.2327 36.2289 21.5269 36.5403L21.6017 36.6131L34.1262 24.0886V23.941V23.7934L21.6017 11.2678L21.5269 11.3416Z" fill="url(#paint0_linear_507_684)"/>
<path d="M38.2989 28.265L34.1248 24.0888V23.9412V23.7936L38.2999 19.6184L38.394 19.672L43.3405 22.4824C44.7528 23.2851 44.7528 24.5983 43.3405 25.402L38.394 28.2124L38.2989 28.265Z" fill="url(#paint1_linear_507_684)"/>
<g filter="url(#filter1_i_507_684)">
<path d="M38.3961 28.2121L34.1259 23.9419L21.5276 36.5412C21.9926 37.0346 22.7619 37.0952 23.6283 36.6039L38.3961 28.2121Z" fill="url(#paint2_linear_507_684)"/>
</g>
<path d="M38.3961 19.671L23.6283 11.2802C22.7619 10.7879 21.9926 10.8495 21.5276 11.3429L34.1269 23.9422L38.3961 19.671Z" fill="url(#paint3_linear_507_684)"/>
</g>
<defs>
<filter id="filter0_ii_507_684" x="21.0588" y="10.9404" width="23.3408" height="26.0029" filterUnits="userSpaceOnUse" color-interpolation-filters="sRGB">
<feFlood flood-opacity="0" result="BackgroundImageFix"/>
<feBlend mode="normal" in="SourceGraphic" in2="BackgroundImageFix" result="shape"/>
<feColorMatrix in="SourceAlpha" type="matrix" values="0 0 0 0 0 0 0 0 0 0 0 0 0 0 0 0 0 0 127 0" result="hardAlpha"/>
<feOffset dy="-0.133333"/>
<feComposite in2="hardAlpha" operator="arithmetic" k2="-1" k3="1"/>
<feColorMatrix type="matrix" values="0 0 0 0 0 0 0 0 0 0 0 0 0 0 0 0 0 0 0.12 0"/>
<feBlend mode="normal" in2="shape" result="effect1_innerShadow_507_684"/>
<feColorMatrix in="SourceAlpha" type="matrix" values="0 0 0 0 0 0 0 0 0 0 0 0 0 0 0 0 0 0 127 0" result="hardAlpha"/>
<feOffset dy="0.133333"/>
<feComposite in2="hardAlpha" operator="arithmetic" k2="-1" k3="1"/>
<feColorMatrix type="matrix" values="0 0 0 0 1 0 0 0 0 1 0 0 0 0 1 0 0 0 0.25 0"/>
<feBlend mode="normal" in2="effect1_innerShadow_507_684" result="effect2_innerShadow_507_684"/>
</filter>
<filter id="filter1_i_507_684" x="21.5276" y="23.9419" width="16.8687" height="13.0015" filterUnits="userSpaceOnUse" color-interpolation-filters="sRGB">
<feFlood flood-opacity="0" result="BackgroundImageFix"/>
<feBlend mode="normal" in="SourceGraphic" in2="BackgroundImageFix" result="shape"/>
<feColorMatrix in="SourceAlpha" type="matrix" values="0 0 0 0 0 0 0 0 0 0 0 0 0 0 0 0 0 0 127 0" result="hardAlpha"/>
<feOffset dy="-0.133333"/>
<feComposite in2="hardAlpha" operator="arithmetic" k2="-1" k3="1"/>
<feColorMatrix type="matrix" values="0 0 0 0 0 0 0 0 0 0 0 0 0 0 0 0 0 0 0.08 0"/>
<feBlend mode="normal" in2="shape" result="effect1_innerShadow_507_684"/>
</filter>
<linearGradient id="paint0_linear_507_684" x1="33.016" y1="12.5254" x2="16.0504" y2="29.491" gradientUnits="userSpaceOnUse">
<stop stop-color="#00A0FF"/>
<stop offset="0.0066" stop-color="#00A1FF"/>
<stop offset="0.2601" stop-color="#00BEFF"/>
<stop offset="0.5122" stop-color="#00D2FF"/>
<stop offset="0.7604" stop-color="#00DFFF"/>
<stop offset="1" stop-color="#00E3FF"/>
</linearGradient>
<linearGradient id="paint1_linear_507_684" x1="45.1789" y1="23.9412" x2="20.7183" y2="23.9412" gradientUnits="userSpaceOnUse">
<stop stop-color="#FFE000"/>
<stop offset="0.4087" stop-color="#FFBD00"/>
<stop offset="0.7754" stop-color="#FFA500"/>
<stop offset="1" stop-color="#FF9C00"/>
</linearGradient>
<linearGradient id="paint2_linear_507_684" x1="36.0771" y1="26.2609" x2="13.0697" y2="49.2684" gradientUnits="userSpaceOnUse">
<stop stop-color="#FF3A44"/>
<stop offset="1" stop-color="#C31162"/>
</linearGradient>
<linearGradient id="paint3_linear_507_684" x1="18.3547" y1="3.90012" x2="28.6281" y2="14.1736" gradientUnits="userSpaceOnUse">
<stop stop-color="#32A071"/>
<stop offset="0.0685" stop-color="#2DA771"/>
<stop offset="0.4762" stop-color="#15CF74"/>
<stop offset="0.8009" stop-color="#06E775"/>
<stop offset="1" stop-color="#00F076"/>
</linearGradient>
</defs>
</svg>
