<svg width="75" height="14" viewBox="0 0 75 14" fill="none" xmlns="http://www.w3.org/2000/svg">
<path d="M7.4445 0.166626L9.28623 4.29837L13.7849 4.77318L10.4245 7.80155L11.3631 12.2267L7.4445 9.96663L3.52593 12.2267L4.46452 7.80155L1.10412 4.77318L5.60277 4.29837L7.4445 0.166626Z" fill="#EA0000"/>
<path d="M22.5556 0.166626L24.3973 4.29837L28.896 4.77318L25.5356 7.80155L26.4742 12.2267L22.5556 9.96663L18.637 12.2267L19.5756 7.80155L16.2152 4.77318L20.7139 4.29837L22.5556 0.166626Z" fill="#EA0000"/>
<path d="M37.6667 0.166626L39.5084 4.29837L44.007 4.77318L40.6466 7.80155L41.5852 12.2267L37.6667 9.96663L33.7481 12.2267L34.6867 7.80155L31.3263 4.77318L35.8249 4.29837L37.6667 0.166626Z" fill="#EA0000"/>
<path d="M52.7778 0.166626L54.6195 4.29837L59.1181 4.77318L55.7577 7.80155L56.6963 12.2267L52.7778 9.96663L48.8592 12.2267L49.7978 7.80155L46.4374 4.77318L50.936 4.29837L52.7778 0.166626Z" fill="#EA0000"/>
<path d="M67.8888 0.166626L69.7306 4.29837L74.2292 4.77318L70.8688 7.80155L71.8074 12.2267L67.8888 9.96663L63.9703 12.2267L64.9089 7.80155L61.5485 4.77318L66.0471 4.29837L67.8888 0.166626Z" fill="#EA0000"/>
</svg>
