<svg width="92" height="21" viewBox="0 0 92 21" fill="none" xmlns="http://www.w3.org/2000/svg">
<path d="M9.82131 3.21291C10.0874 2.39396 11.246 2.39396 11.5121 3.21291L12.6624 6.75315C12.7814 7.1194 13.1227 7.36736 13.5078 7.36736H17.2302C18.0913 7.36736 18.4493 8.46924 17.7527 8.97538L14.7412 11.1634C14.4296 11.3897 14.2992 11.7909 14.4182 12.1572L15.5685 15.6974C15.8346 16.5164 14.8973 17.1974 14.2007 16.6912L11.1892 14.5032C10.8776 14.2769 10.4558 14.2769 10.1442 14.5032L7.1327 16.6912C6.43607 17.1974 5.49875 16.5164 5.76484 15.6974L6.91514 12.1572C7.03414 11.7909 6.90378 11.3897 6.59223 11.1634L3.58072 8.97538C2.88408 8.46924 3.24211 7.36736 4.10319 7.36736H7.82563C8.21072 7.36736 8.55201 7.1194 8.67101 6.75315L9.82131 3.21291Z" fill="#EA0000"/>
<path d="M27.599 3.21291C27.8651 2.39396 29.0237 2.39396 29.2898 3.21291L30.4401 6.75315C30.5591 7.1194 30.9004 7.36736 31.2855 7.36736H35.0079C35.869 7.36736 36.227 8.46924 35.5304 8.97538L32.5189 11.1634C32.2073 11.3897 32.077 11.7909 32.196 12.1572L33.3463 15.6974C33.6123 16.5164 32.675 17.1974 31.9784 16.6912L28.9669 14.5032C28.6553 14.2769 28.2335 14.2769 27.9219 14.5032L24.9104 16.6912C24.2138 17.1974 23.2765 16.5164 23.5426 15.6974L24.6929 12.1572C24.8118 11.7909 24.6815 11.3897 24.3699 11.1634L21.3584 8.97538C20.6618 8.46924 21.0198 7.36736 21.8809 7.36736H25.6033C25.9884 7.36736 26.3297 7.1194 26.4487 6.75315L27.599 3.21291Z" fill="#EA0000"/>
<path d="M45.3769 3.21291C45.6429 2.39396 46.8015 2.39396 47.0676 3.21291L48.2179 6.75315C48.3369 7.1194 48.6782 7.36736 49.0633 7.36736H52.7857C53.6468 7.36736 54.0048 8.46924 53.3082 8.97538L50.2967 11.1634C49.9852 11.3897 49.8548 11.7909 49.9738 12.1572L51.1241 15.6974C51.3902 16.5164 50.4529 17.1974 49.7562 16.6912L46.7447 14.5032C46.4332 14.2769 46.0113 14.2769 45.6998 14.5032L42.6882 16.6912C41.9916 17.1974 41.0543 16.5164 41.3204 15.6974L42.4707 12.1572C42.5897 11.7909 42.4593 11.3897 42.1478 11.1634L39.1363 8.97538C38.4396 8.46924 38.7976 7.36736 39.6587 7.36736H43.3812C43.7663 7.36736 44.1076 7.1194 44.2266 6.75315L45.3769 3.21291Z" fill="#EA0000"/>
<path d="M63.1546 3.21291C63.4207 2.39396 64.5792 2.39396 64.8453 3.21291L65.9956 6.75315C66.1146 7.1194 66.4559 7.36736 66.841 7.36736H70.5634C71.4245 7.36736 71.7826 8.46924 71.0859 8.97538L68.0744 11.1634C67.7629 11.3897 67.6325 11.7909 67.7515 12.1572L68.9018 15.6974C69.1679 16.5164 68.2306 17.1974 67.5339 16.6912L64.5224 14.5032C64.2109 14.2769 63.789 14.2769 63.4775 14.5032L60.466 16.6912C59.7693 17.1974 58.832 16.5164 59.0981 15.6974L60.2484 12.1572C60.3674 11.7909 60.237 11.3897 59.9255 11.1634L56.914 8.97538C56.2173 8.46924 56.5754 7.36736 57.4364 7.36736H61.1589C61.544 7.36736 61.8853 7.1194 62.0043 6.75315L63.1546 3.21291Z" fill="#EA0000"/>
<path d="M80.9324 3.21291C81.1985 2.39396 82.3571 2.39396 82.6232 3.21291L83.7735 6.75315C83.8925 7.1194 84.2338 7.36736 84.6188 7.36736H88.3413C89.2024 7.36736 89.5604 8.46924 88.8638 8.97538L85.8522 11.1634C85.5407 11.3897 85.4103 11.7909 85.5293 12.1572L86.6796 15.6974C86.9457 16.5164 86.0084 17.1974 85.3118 16.6912L82.3003 14.5032C81.9887 14.2769 81.5668 14.2769 81.2553 14.5032L78.2438 16.6912C77.5472 17.1974 76.6098 16.5164 76.8759 15.6974L78.0262 12.1572C78.1452 11.7909 78.0149 11.3897 77.7033 11.1634L74.6918 8.97538C73.9952 8.46924 74.3532 7.36736 75.2143 7.36736H78.9367C79.3218 7.36736 79.6631 7.1194 79.7821 6.75315L80.9324 3.21291Z" fill="#EA0000"/>
</svg>
