<svg width="75" height="15" viewBox="0 0 75 15" fill="none" xmlns="http://www.w3.org/2000/svg">
<path d="M7.14125 0.88916L8.98283 5.02091L13.4811 5.49571L10.121 8.52408L11.0595 12.9493L7.14125 10.6892L3.22298 12.9493L4.1615 8.52408L0.801363 5.49571L5.29966 5.02091L7.14125 0.88916Z" fill="#EA0000"/>
<path d="M22.2514 0.88916L24.0929 5.02091L28.5912 5.49571L25.2311 8.52408L26.1696 12.9493L22.2514 10.6892L18.3331 12.9493L19.2716 8.52408L15.9115 5.49571L20.4098 5.02091L22.2514 0.88916Z" fill="#EA0000"/>
<path d="M37.3612 0.88916L39.2028 5.02091L43.7011 5.49571L40.341 8.52408L41.2795 12.9493L37.3612 10.6892L33.443 12.9493L34.3815 8.52408L31.0213 5.49571L35.5196 5.02091L37.3612 0.88916Z" fill="#EA0000"/>
<path d="M52.4712 0.88916L54.3128 5.02091L58.8111 5.49571L55.451 8.52408L56.3895 12.9493L52.4712 10.6892L48.5529 12.9493L49.4915 8.52408L46.1313 5.49571L50.6296 5.02091L52.4712 0.88916Z" fill="#EA0000"/>
<path d="M67.5812 0.88916L69.4228 5.02091L73.9211 5.49571L70.5609 8.52408L71.4995 12.9493L67.5812 10.6892L63.6629 12.9493L64.6014 8.52408L61.2413 5.49571L65.7396 5.02091L67.5812 0.88916Z" fill="#EA0000"/>
</svg>
