<svg width="35" height="34" viewBox="0 0 35 34" fill="none" xmlns="http://www.w3.org/2000/svg">
<path d="M0.555542 8.94455C0.555542 4.03536 4.53523 0.0556641 9.44443 0.0556641H23.6574C29.2116 0.0556641 33.4055 5.09261 32.3993 10.5549L29.4519 26.5549C28.675 30.772 24.9982 33.8334 20.7101 33.8334H9.44444C4.53524 33.8334 0.555542 29.8537 0.555542 24.9446V8.94455Z" fill="white"/>
<path d="M13.7935 22.4621C13.3604 22.0458 13.3604 21.3529 13.7935 20.9366L15.9466 18.8671C17.0382 17.8178 17.0382 16.0712 15.9466 15.022L13.7935 12.9524C13.3604 12.5362 13.3604 11.8433 13.7935 11.427V11.427C14.203 11.0334 14.8503 11.0334 15.2598 11.427L18.9999 15.022C20.0915 16.0712 20.0915 17.8178 18.9999 18.8671L15.2598 22.4621C14.8503 22.8557 14.203 22.8557 13.7935 22.4621V22.4621Z" fill="#EA0000"/>
</svg>
