<svg width="15" height="15" viewBox="0 0 13 15" fill="none" xmlns="http://www.w3.org/2000/svg">
<path d="M10.5555 10.3345C10.0489 10.3345 9.59221 10.5312 9.24554 10.8478L4.49554 8.07783C4.53221 7.92783 4.55554 7.77116 4.55554 7.61116C4.55554 7.45116 4.53221 7.2945 4.49554 7.1445L9.19554 4.40116C9.55221 4.7345 10.0289 4.94116 10.5555 4.94116C11.6589 4.94116 12.5555 4.0445 12.5555 2.94116C12.5555 1.83783 11.6589 0.941162 10.5555 0.941162C9.45221 0.941162 8.55554 1.83783 8.55554 2.94116C8.55554 3.10116 8.57888 3.25783 8.61554 3.40783L3.91554 6.15116C3.55888 5.81783 3.08221 5.61116 2.55554 5.61116C1.45221 5.61116 0.555542 6.50783 0.555542 7.61116C0.555542 8.7145 1.45221 9.61116 2.55554 9.61116C3.08221 9.61116 3.55888 9.4045 3.91554 9.07116L8.66554 11.8412C8.63221 11.9812 8.61221 12.1278 8.61221 12.2778C8.61221 13.3512 9.48221 14.2212 10.5555 14.2212C11.6289 14.2212 12.4989 13.3512 12.4989 12.2778C12.4989 11.2045 11.6289 10.3345 10.5555 10.3345Z" fill="white"/>
</svg>
