<svg width="16" height="10" viewBox="0 0 16 10" fill="none" xmlns="http://www.w3.org/2000/svg">
<path fill-rule="evenodd" clip-rule="evenodd" d="M1.4578 0.222168C1.14362 0.222168 0.888916 0.430628 0.888916 0.687776V9.53434C0.888916 9.79149 1.14362 9.99995 1.4578 9.99995H14.5422C14.8564 9.99995 15.1111 9.79149 15.1111 9.53434V0.687776C15.1111 0.430628 14.8564 0.222168 14.5422 0.222168H1.4578ZM2.66669 1.11106H13.3334L8.00003 4.94617L2.66669 1.11106ZM9.33336 5.11106L14.2222 1.5555V8.66661L9.33336 5.11106ZM8.44447 5.5555L13.3334 9.12295H2.66669L7.55558 5.5555C7.8139 5.76765 8.18615 5.76765 8.44447 5.5555ZM6.66669 5.11106L1.7778 1.5555V8.66661L6.66669 5.11106Z" fill="white"/>
</svg>
